<svg width="256" height="256" viewBox="0 0 256 256" fill="none" xmlns="http://www.w3.org/2000/svg">
<g filter="url(#filter0_i_584_30)">
<path d="M203.414 52.5867C186.805 35.9596 165.169 25.2834 141.868 22.2165C118.568 19.1496 94.9066 23.8638 74.5605 35.6267" stroke="#24E0A4" stroke-width="21" stroke-linecap="round" stroke-linejoin="round"/>
</g>
<g filter="url(#filter1_i_584_30)">
<path d="M42.666 64H42.7727" stroke="#24E0A4" stroke-width="21" stroke-linecap="round" stroke-linejoin="round"/>
</g>
<g filter="url(#filter2_i_584_30)">
<path d="M24.4258 102.614C20.4269 118.902 20.3254 135.904 24.1296 152.24C27.9338 168.575 35.5366 183.783 46.3206 196.629C57.1046 209.475 70.766 219.596 86.1954 226.172C101.625 232.748 118.388 235.593 135.123 234.475C151.858 233.358 168.094 228.31 182.512 219.741C196.93 211.172 209.124 199.324 218.105 185.158C227.085 170.993 232.599 154.909 234.197 138.213C235.796 121.517 233.435 104.679 227.306 89.0669" stroke="#24E0A4" stroke-width="21" stroke-linecap="round" stroke-linejoin="round"/>
</g>
<g filter="url(#filter3_i_584_30)">
<path d="M199.111 128H170.666L149.333 192L106.666 64L85.3331 128H56.8887" stroke="#24E0A4" stroke-width="21" stroke-linecap="round" stroke-linejoin="round"/>
<path d="M128 142.222C135.854 142.222 142.222 135.854 142.222 128C142.222 120.145 135.854 113.777 128 113.777C120.145 113.777 113.777 120.145 113.777 128C113.777 135.854 120.145 142.222 128 142.222Z" fill="#24E0A4" stroke="#24E0A4" stroke-width="7" stroke-linecap="round" stroke-linejoin="round"/>
</g>
<defs>
<filter id="filter0_i_584_30" x="64.0586" y="10.8042" width="149.855" height="56.2827" filterUnits="userSpaceOnUse" color-interpolation-filters="sRGB">
<feFlood flood-opacity="0" result="BackgroundImageFix"/>
<feBlend mode="normal" in="SourceGraphic" in2="BackgroundImageFix" result="shape"/>
<feColorMatrix in="SourceAlpha" type="matrix" values="0 0 0 0 0 0 0 0 0 0 0 0 0 0 0 0 0 0 127 0" result="hardAlpha"/>
<feOffset dy="4"/>
<feGaussianBlur stdDeviation="2"/>
<feComposite in2="hardAlpha" operator="arithmetic" k2="-1" k3="1"/>
<feColorMatrix type="matrix" values="0 0 0 0 0 0 0 0 0 0 0 0 0 0 0 0 0 0 0.25 0"/>
<feBlend mode="normal" in2="shape" result="effect1_innerShadow_584_30"/>
</filter>
<filter id="filter1_i_584_30" x="32.166" y="53.5" width="21.1074" height="25" filterUnits="userSpaceOnUse" color-interpolation-filters="sRGB">
<feFlood flood-opacity="0" result="BackgroundImageFix"/>
<feBlend mode="normal" in="SourceGraphic" in2="BackgroundImageFix" result="shape"/>
<feColorMatrix in="SourceAlpha" type="matrix" values="0 0 0 0 0 0 0 0 0 0 0 0 0 0 0 0 0 0 127 0" result="hardAlpha"/>
<feOffset dy="4"/>
<feGaussianBlur stdDeviation="2"/>
<feComposite in2="hardAlpha" operator="arithmetic" k2="-1" k3="1"/>
<feColorMatrix type="matrix" values="0 0 0 0 0 0 0 0 0 0 0 0 0 0 0 0 0 0 0.25 0"/>
<feBlend mode="normal" in2="shape" result="effect1_innerShadow_584_30"/>
</filter>
<filter id="filter2_i_584_30" x="10.8496" y="78.564" width="234.334" height="170.649" filterUnits="userSpaceOnUse" color-interpolation-filters="sRGB">
<feFlood flood-opacity="0" result="BackgroundImageFix"/>
<feBlend mode="normal" in="SourceGraphic" in2="BackgroundImageFix" result="shape"/>
<feColorMatrix in="SourceAlpha" type="matrix" values="0 0 0 0 0 0 0 0 0 0 0 0 0 0 0 0 0 0 127 0" result="hardAlpha"/>
<feOffset dy="4"/>
<feGaussianBlur stdDeviation="2"/>
<feComposite in2="hardAlpha" operator="arithmetic" k2="-1" k3="1"/>
<feColorMatrix type="matrix" values="0 0 0 0 0 0 0 0 0 0 0 0 0 0 0 0 0 0 0.25 0"/>
<feBlend mode="normal" in2="shape" result="effect1_innerShadow_584_30"/>
</filter>
<filter id="filter3_i_584_30" x="46.3887" y="53.5" width="163.223" height="153" filterUnits="userSpaceOnUse" color-interpolation-filters="sRGB">
<feFlood flood-opacity="0" result="BackgroundImageFix"/>
<feBlend mode="normal" in="SourceGraphic" in2="BackgroundImageFix" result="shape"/>
<feColorMatrix in="SourceAlpha" type="matrix" values="0 0 0 0 0 0 0 0 0 0 0 0 0 0 0 0 0 0 127 0" result="hardAlpha"/>
<feOffset dy="4"/>
<feGaussianBlur stdDeviation="2"/>
<feComposite in2="hardAlpha" operator="arithmetic" k2="-1" k3="1"/>
<feColorMatrix type="matrix" values="0 0 0 0 0 0 0 0 0 0 0 0 0 0 0 0 0 0 0.25 0"/>
<feBlend mode="normal" in2="shape" result="effect1_innerShadow_584_30"/>
</filter>
</defs>
</svg>
